<svg width="29" height="29" fill="none" xmlns="http://www.w3.org/2000/svg"><path d="M14.5 2.611c3.874 0 4.333.017 5.857.085 1.416.062 2.18.3 2.69.499.674.26 1.161.577 1.665 1.081.51.51.822.992 1.082 1.666.198.51.436 1.28.499 2.69.067 1.53.085 1.988.085 5.857 0 3.874-.018 4.333-.085 5.856-.063 1.416-.3 2.181-.499 2.69a4.483 4.483 0 01-1.082 1.666 4.46 4.46 0 01-1.665 1.082c-.51.198-1.28.436-2.69.498-1.53.068-1.988.085-5.857.085-3.874 0-4.333-.017-5.857-.085-1.416-.062-2.18-.3-2.69-.498A4.484 4.484 0 014.288 24.7a4.46 4.46 0 01-1.082-1.665c-.198-.51-.436-1.28-.499-2.69-.068-1.53-.085-1.989-.085-5.857 0-3.875.017-4.333.085-5.857.063-1.416.3-2.18.499-2.69a4.484 4.484 0 011.082-1.666 4.46 4.46 0 011.665-1.081c.51-.199 1.28-.437 2.69-.499 1.524-.068 1.983-.085 5.857-.085zM14.5 0c-3.937 0-4.43.017-5.976.085-1.54.068-2.6.317-3.517.674a7.077 7.077 0 00-2.571 1.677A7.105 7.105 0 00.759 5C.402 5.925.153 6.978.085 8.52.017 10.07 0 10.563 0 14.5c0 3.936.017 4.43.085 5.976.068 1.54.317 2.6.674 3.517a7.077 7.077 0 001.677 2.572A7.088 7.088 0 005 28.234c.924.357 1.977.606 3.518.674 1.546.068 2.039.085 5.975.085 3.937 0 4.43-.017 5.976-.085 1.54-.068 2.6-.317 3.517-.674a7.088 7.088 0 002.566-1.67 7.087 7.087 0 001.671-2.566c.357-.924.606-1.977.674-3.518.068-1.546.085-2.039.085-5.975 0-3.937-.017-4.43-.085-5.976-.068-1.54-.317-2.6-.674-3.517a6.792 6.792 0 00-1.66-2.577A7.088 7.088 0 0024 .765C23.075.408 22.022.159 20.48.09 18.93.017 18.436 0 14.5 0z" fill="#fff"/><path d="M14.5 7.052A7.45 7.45 0 007.052 14.5a7.45 7.45 0 007.448 7.448 7.45 7.45 0 007.448-7.448A7.45 7.45 0 0014.5 7.052zm0 12.28a4.832 4.832 0 11.001-9.665 4.832 4.832 0 01-.001 9.664zM23.982 6.757a1.74 1.74 0 11-3.479 0 1.74 1.74 0 013.479 0z" fill="#fff"/></svg>