<svg width="29" height="29" fill="none" xmlns="http://www.w3.org/2000/svg"><path d="M28.711 8.7s-.283-2-1.155-2.878c-1.105-1.155-2.34-1.16-2.906-1.229C20.595 4.3 14.506 4.3 14.506 4.3h-.012s-6.089 0-10.144.294c-.566.068-1.801.074-2.906 1.23C.572 6.7.294 8.7.294 8.7S0 11.05 0 13.395v2.198c0 2.345.289 4.695.289 4.695s.283 2 1.15 2.878c1.104 1.155 2.554 1.116 3.2 1.24 2.322.221 9.861.29 9.861.29s6.095-.012 10.15-.301c.566-.068 1.801-.074 2.906-1.23.872-.877 1.155-2.877 1.155-2.877S29 17.944 29 15.593v-2.198c0-2.345-.289-4.695-.289-4.695zm-17.207 9.56v-8.15l7.833 4.09-7.833 4.06z" fill="#fff"/></svg>